<?xml version="1.0" encoding="UTF-8"?>
<svg version="1.1" xmlns="http://www.w3.org/2000/svg" width="202" height="239">
<path d="M0 0 C66.66 0 133.32 0 202 0 C202 78.87 202 157.74 202 239 C135.34 239 68.68 239 0 239 C0 160.13 0 81.26 0 0 Z " fill="#050505" transform="translate(0,0)"/>
<path d="M0 0 C6.31329184 15.8108323 6.50974781 32.17172108 6.375 49 C6.37034729 50.03491577 6.36569458 51.06983154 6.36090088 52.1361084 C6.19997228 82.69132033 3.68241786 115.43522844 -9.203125 143.6328125 C-10.12650576 146.37579651 -9.96334331 147.31833004 -9 150 C-7.72708716 151.57763138 -7.72708716 151.57763138 -6.09375 152.9453125 C-5.51496094 153.46480469 -4.93617188 153.98429688 -4.33984375 154.51953125 C-3.73269531 155.04933594 -3.12554687 155.57914063 -2.5 156.125 C4.8514823 162.6336372 4.8514823 162.6336372 5.3125 166.875 C5 170 5 170 3.4375 172.375 C-0.08248343 174.72165562 -1.83110943 174.7642966 -6 174 C-9.00067451 171.99167454 -11.46760288 169.56207365 -14 167 C-14.680625 166.33226562 -15.36125 165.66453125 -16.0625 164.9765625 C-17.72560462 163.33357608 -19.37005533 161.67578686 -21 160 C-24.45126668 161.27981945 -27.36628064 162.79518261 -30.4375 164.8125 C-47.09405859 174.95019712 -67.4641175 177.56552637 -86.4375 173.75 C-102.078125 169.921875 -102.078125 169.921875 -105 167 C-105.55312235 160.07394623 -103.9326093 154.51561648 -101.6875 148 C-101.33284668 146.95763184 -100.97819336 145.91526367 -100.61279297 144.84130859 C-85.7217752 102.32378591 -62.60383077 69.16339322 -26.62890625 42.27758789 C-24.87304614 40.95304623 -24.87304614 40.95304623 -23 39 C-22.83312552 36.41645782 -22.83312552 36.41645782 -23 34 C-27.0801232 33.51236047 -28.74714321 33.83798996 -32.26171875 36.08984375 C-33.41584871 37.02418722 -34.5573108 37.97433539 -35.6875 38.9375 C-36.2969043 39.43749512 -36.90630859 39.93749023 -37.53417969 40.45263672 C-38.77628016 41.4736524 -40.01347797 42.50066265 -41.24560547 43.53369141 C-43.71808522 45.60016975 -46.23836919 47.60640625 -48.75 49.625 C-53.97663718 53.93199427 -59.04021064 58.38869258 -64 63 C-64.72703125 63.66128906 -65.4540625 64.32257813 -66.203125 65.00390625 C-102.35053423 99.26592903 -113.26560253 147.83830517 -115.234375 195.52734375 C-115.27022705 196.31157715 -115.3060791 197.09581055 -115.34301758 197.90380859 C-115.42970912 199.88449757 -115.49519982 201.86608479 -115.55859375 203.84765625 C-116.04406348 207.31468347 -116.83477145 209.26073411 -119 212 C-122.45710764 212.94284754 -124.85426758 213.34062315 -128.3125 212.3125 C-130.5092909 210.60388485 -131.21786595 209.70191764 -132 207 C-131.51222504 201.35477235 -130.35928289 196.21622611 -128.71484375 190.80859375 C-128.26221426 189.27153017 -127.80974509 187.73441937 -127.35742188 186.19726562 C-126.64730607 183.81128636 -125.93412661 181.42627708 -125.2175293 179.04223633 C-124.52103096 176.7166726 -123.83617108 174.3879095 -123.15234375 172.05859375 C-122.82894264 171.00205849 -122.82894264 171.00205849 -122.49900818 169.92417908 C-121.20759553 165.50292542 -120.63041946 161.59895016 -121 157 C-122.91028051 153.89107879 -122.91028051 153.89107879 -125.5625 151 C-138.12118053 135.86214522 -141.36411365 119.23290533 -140 100 C-138.09212403 83.94113537 -128.82543819 68.64989209 -118 57 C-117.18015625 56.10023437 -116.3603125 55.20046875 -115.515625 54.2734375 C-88.24235926 25.62843945 -48.28060746 11.09266997 -11 1 C-10.31623291 0.80849365 -9.63246582 0.6169873 -8.92797852 0.41967773 C-5.95871078 -0.22666534 -3.02531432 -0.05817912 0 0 Z " fill="#F9F9F5" transform="translate(177,18)"/>
<path d="M0 0 C5.78496426 3.15259743 9.47371925 7.05288974 12.1484375 13.09375 C14.35109718 20.61108394 14.18510416 28.33584996 10.9375 35.5 C7.20851814 41.8790729 2.23564895 46.25064379 -4.83984375 48.52734375 C-12.7341855 50.25467712 -20.06370986 49.1979831 -27 45 C-34.48367455 38.76148692 -37.25484633 31.96122937 -38.4375 22.5 C-37.44598056 14.56784452 -34.13352752 7.25331742 -28 2 C-18.7600793 -3.75084248 -9.91915649 -4.56073105 0 0 Z " fill="#060606" transform="translate(148,120)"/>
<path d="M0 0 C0.66 0 1.32 0 2 0 C1.67 2.31 1.34 4.62 1 7 C0.01 7.33 -0.98 7.66 -2 8 C-1.34 5.36 -0.68 2.72 0 0 Z " fill="#0D0D0C" transform="translate(73,167)"/>
</svg>
