<svg width="157" height="48" viewBox="0 0 157 48" fill="none" xmlns="http://www.w3.org/2000/svg">
<g clip-path="url(#clip0_344_1281)">
<path d="M13.5308 26.1911C13.5308 23.5847 11.5704 21.7528 9.16229 21.7528C6.75421 21.7528 4.7938 23.6155 4.7938 26.1911C4.7938 28.7358 6.75421 30.6295 9.16229 30.6295C11.5728 30.6271 13.5308 28.7976 13.5308 26.1911ZM13.5652 33.9488V31.9315C12.3771 33.3287 10.6086 34.1959 8.49078 34.1959C4.09031 34.1959 0.75 30.7815 0.75 26.1911C0.75 21.6292 4.21822 18.1555 8.58917 18.1555C10.6455 18.1555 12.3797 19.0251 13.5676 20.389V18.4335H17.518V33.9488H13.5652Z" fill="white"/>
<path d="M36.7062 30.5036C35.3238 30.5036 34.9401 30.0069 34.9401 28.7049V21.8169H37.4785V18.4335H34.9401V14.6485H30.8914V18.4335H25.6767V17.4902C25.6767 16.1858 26.1909 15.6892 27.6052 15.6892H28.4932V12.6788H26.545C23.2047 12.6788 21.6305 13.7338 21.6305 16.9604V18.4311H19.3823V21.8145H21.6305V33.9464H25.6793V21.8145H30.8938V29.4177C30.8938 32.5825 32.1459 33.9488 35.4222 33.9488H37.5105V30.5036H36.7062Z" fill="white"/>
<path d="M51.2262 24.794C50.9383 22.7767 49.2338 21.5673 47.2438 21.5673C45.2514 21.5673 43.6133 22.7459 43.1976 24.794H51.2262ZM43.1632 27.2151C43.4534 29.5103 45.1555 30.8148 47.3078 30.8148C49.0099 30.8148 50.3284 30.0378 51.0982 28.7975H55.2429C54.2787 32.0859 51.2262 34.1958 47.2119 34.1958C42.3613 34.1958 38.957 30.9074 38.957 26.2219C38.957 21.5365 42.5557 18.1531 47.3102 18.1531C52.0969 18.1531 55.5651 21.5674 55.5651 26.2219C55.5651 26.5641 55.5331 26.9039 55.4692 27.2151H43.1632Z" fill="white"/>
<path d="M81.3062 26.1911C81.3062 23.6773 79.3458 21.7528 76.9377 21.7528C74.5297 21.7528 72.5692 23.6155 72.5692 26.1911C72.5692 28.7358 74.5297 30.6295 76.9377 30.6295C79.3458 30.6271 81.3062 28.705 81.3062 26.1911ZM68.5845 18.4335H72.5347V20.4507C73.7228 19.0227 75.4889 18.1555 77.6092 18.1555C81.9457 18.1555 85.35 21.6007 85.35 26.1602C85.35 30.7221 81.8817 34.1982 77.5133 34.1982C75.4889 34.1982 73.8188 33.4213 72.6627 32.1193V40.3331H68.5845V18.4335Z" fill="white"/>
<path d="M99.5894 26.1911C99.5894 23.5847 97.6314 21.7528 95.2207 21.7528C92.8127 21.7528 90.8523 23.6155 90.8523 26.1911C90.8523 28.7358 92.8127 30.6295 95.2207 30.6295C97.6314 30.6271 99.5894 28.7976 99.5894 26.1911ZM99.624 33.9488V31.9315C98.4359 33.3287 96.6669 34.1959 94.549 34.1959C90.1488 34.1959 86.8086 30.7815 86.8086 26.1911C86.8086 21.6292 90.2768 18.1555 94.6453 18.1555C96.7015 18.1555 98.4359 19.0251 99.624 20.389V18.4335H103.575V33.9488H99.624Z" fill="white"/>
<path d="M61.4635 19.9541C61.4635 19.9541 62.4696 18.1555 64.9317 18.1555C65.9845 18.1555 66.6659 18.5048 66.6659 18.5048V22.4632C66.6659 22.4632 65.1801 21.5769 63.815 21.7551C62.4498 21.9334 61.5865 23.1451 61.5914 24.7655V33.9511H57.5132V18.4359H61.4635V19.9541Z" fill="white"/>
<path d="M122.024 18.4335L112.05 40.2831H107.844L111.76 31.8365L105.139 18.4335H109.906L113.78 27.3886L117.755 18.4335H122.024Z" fill="white"/>
<path d="M153.864 18.0818L143.976 12.5695C141.073 10.9515 137.445 12.9735 137.445 16.2119V16.7774C137.445 17.2883 137.727 17.7611 138.185 18.0153L140.052 19.056C140.6 19.3625 141.284 18.98 141.284 18.3693V16.9627C141.284 16.2595 142.072 15.8199 142.701 16.1715L151.266 20.9473C151.896 21.2989 151.896 22.1781 151.266 22.5274L142.701 27.3031C142.072 27.6548 141.284 27.2152 141.284 26.5119V25.7634C141.284 22.5249 137.656 20.5006 134.752 22.121L124.864 27.6333C121.961 29.2514 121.961 33.3001 124.864 34.9181L134.752 40.4305C137.654 42.0485 141.284 40.0265 141.284 36.7881V36.2226C141.284 35.7117 141.002 35.2413 140.544 34.9846L138.677 33.9416C138.129 33.6351 137.445 34.0176 137.445 34.6283V36.0349C137.445 36.7382 136.658 37.1777 136.028 36.8261L127.463 32.0503C126.834 31.6987 126.834 30.8196 127.463 30.4679L136.028 25.6921C136.658 25.3405 137.445 25.78 137.445 26.4833V27.2318C137.445 30.4703 141.073 32.4947 143.976 30.8742L153.864 25.3619C156.766 23.7486 156.766 19.6999 153.864 18.0818Z" fill="white"/>
</g>
<defs>
<clipPath id="clip0_344_1281">
<rect width="156" height="48" fill="white" transform="translate(0.75)"/>
</clipPath>
</defs>
</svg>
