<svg width="136" height="48" viewBox="0 0 136 48" fill="none" xmlns="http://www.w3.org/2000/svg">
<g clip-path="url(#clip0_344_1293)">
<path fill-rule="evenodd" clip-rule="evenodd" d="M17.93 5C8.29992 5 0.5 12.7999 0.5 22.43C0.5 30.1428 5.48934 36.6572 12.4178 38.9667C13.2893 39.1192 13.6161 38.5963 13.6161 38.1388C13.6161 37.7248 13.5943 36.3522 13.5943 34.8924C9.215 35.6986 8.08205 33.8249 7.73345 32.8444C7.53736 32.3433 6.68765 30.7964 5.94687 30.3824C5.33682 30.0556 4.46532 29.2495 5.92509 29.2277C7.2977 29.2059 8.27814 30.4914 8.60495 31.0143C10.1736 33.6506 12.6792 32.9098 13.6814 32.4522C13.8339 31.3193 14.2915 30.5567 14.7926 30.121C10.9144 29.6852 6.86195 28.1819 6.86195 21.5149C6.86195 19.6194 7.53736 18.0507 8.64852 16.8306C8.47422 16.3949 7.86417 14.6083 8.82282 12.2117C8.82282 12.2117 10.2826 11.7541 13.6161 13.9982C15.0105 13.6061 16.492 13.41 17.9736 13.41C19.4551 13.41 20.9367 13.6061 22.3311 13.9982C25.6646 11.7323 27.1243 12.2117 27.1243 12.2117C28.083 14.6083 27.4729 16.3949 27.2986 16.8306C28.4098 18.0507 29.0852 19.5976 29.0852 21.5149C29.0852 28.2037 25.0109 29.6852 21.1328 30.121C21.7646 30.6657 22.3093 31.7115 22.3093 33.3455C22.3093 35.6768 22.2875 37.5505 22.2875 38.1388C22.2875 38.5963 22.6143 39.141 23.4858 38.9667C26.946 37.7986 29.9527 35.5748 32.0828 32.6083C34.2129 29.6418 35.3591 26.082 35.36 22.43C35.36 12.7999 27.5601 5 17.93 5Z" fill="white"/>
<path d="M81.7557 30.843H81.7151C81.7334 30.843 81.7456 30.8633 81.7639 30.8654H81.7761L81.7557 30.845V30.843ZM81.7639 30.8654C81.5748 30.8674 81.0989 30.9671 80.5966 30.9671C79.0105 30.9671 78.4615 30.235 78.4615 29.2793V22.9124H81.6947C81.8777 22.9124 82.0201 22.7497 82.0201 22.526V19.0691C82.0201 18.886 81.8574 18.7234 81.6947 18.7234H78.4615V14.4327C78.4615 14.27 78.3598 14.1683 78.1768 14.1683H73.7844C73.6014 14.1683 73.4997 14.27 73.4997 14.4327V18.8454C73.4997 18.8454 71.2832 19.3944 71.1409 19.4147C70.9782 19.4554 70.8765 19.5978 70.8765 19.7604V22.526C70.8765 22.7497 71.0392 22.9124 71.2222 22.9124H73.4794V29.5822C73.4794 34.544 76.9363 35.0524 79.2952 35.0524C80.373 35.0524 81.6744 34.7067 81.8777 34.605C81.9998 34.5643 82.0608 34.422 82.0608 34.2796V31.2294C82.0636 31.1429 82.0351 31.0582 81.9806 30.991C81.926 30.9238 81.8491 30.8785 81.7639 30.8633V30.8654ZM129.95 26.3896C129.95 22.709 128.465 22.221 126.899 22.3837C125.679 22.465 124.703 23.075 124.703 23.075V30.233C124.703 30.233 125.7 30.9244 127.184 30.965C129.279 31.026 129.95 30.2736 129.95 26.3896ZM134.891 26.0643C134.891 33.0392 132.634 35.032 128.689 35.032C125.354 35.032 123.564 33.3442 123.564 33.3442C123.564 33.3442 123.483 34.2796 123.381 34.4016C123.32 34.5236 123.219 34.5643 123.097 34.5643H120.087C119.884 34.5643 119.701 34.4016 119.701 34.2186L119.742 11.6264C119.742 11.4434 119.904 11.2808 120.087 11.2808H124.419C124.602 11.2808 124.764 11.4434 124.764 11.6264V19.2927C124.764 19.2927 126.432 18.215 128.872 18.215L128.852 18.1743C131.292 18.1743 134.891 19.0894 134.891 26.0643ZM117.159 18.7234H112.889C112.665 18.7234 112.543 18.886 112.543 19.1097V30.172C112.543 30.172 111.424 30.965 109.899 30.965C108.374 30.965 107.927 30.2736 107.927 28.7485V19.0894C107.927 18.9064 107.764 18.7437 107.581 18.7437H103.229C103.046 18.7437 102.884 18.9064 102.884 19.0894V29.4806C102.884 33.9543 105.385 35.0727 108.822 35.0727C111.648 35.0727 113.946 33.5069 113.946 33.5069C113.946 33.5069 114.048 34.3 114.109 34.422C114.149 34.5236 114.292 34.605 114.434 34.605H117.159C117.383 34.605 117.505 34.4423 117.505 34.2593L117.545 19.0691C117.545 18.886 117.383 18.7234 117.159 18.7234ZM68.965 18.703H64.6337C64.4507 18.703 64.288 18.886 64.288 19.1097V34.0356C64.288 34.4423 64.5523 34.5847 64.898 34.5847H68.8023C69.209 34.5847 69.3107 34.4016 69.3107 34.0356V19.0487C69.3107 18.8657 69.148 18.703 68.965 18.703ZM66.8299 11.8298C65.2641 11.8298 64.0236 13.0702 64.0236 14.636C64.0236 16.2018 65.2641 17.4423 66.8299 17.4423C68.355 17.4423 69.5954 16.2018 69.5954 14.636C69.5954 13.0702 68.355 11.8298 66.8299 11.8298ZM100.362 11.3214H96.0716C95.8886 11.3214 95.7259 11.4841 95.7259 11.6671V19.9841H88.995V11.6671C88.995 11.4841 88.8323 11.3214 88.6493 11.3214H84.318C84.1349 11.3214 83.9723 11.4841 83.9723 11.6671V34.2593C83.9723 34.4423 84.1553 34.605 84.318 34.605H88.6493C88.8323 34.605 88.995 34.4423 88.995 34.2593V24.6002H95.7259L95.6852 34.2593C95.6852 34.4423 95.8479 34.605 96.0309 34.605H100.362C100.545 34.605 100.708 34.4423 100.708 34.2593V11.6671C100.708 11.4841 100.545 11.3214 100.362 11.3214ZM61.9901 21.3262V32.9985C61.9901 33.0799 61.9698 33.2222 61.8681 33.2629C61.8681 33.2629 59.3262 35.0727 55.1372 35.0727C50.0738 35.0727 44.075 33.4866 44.075 23.0344C44.075 12.5822 49.3214 10.4267 54.4458 10.447C58.8789 10.447 60.6683 11.4434 60.953 11.6264C61.0344 11.7281 61.075 11.8095 61.075 11.9111L60.221 15.5308C60.221 15.7138 60.038 15.9375 59.8143 15.8765C59.0822 15.6528 57.9841 15.2054 55.4016 15.2054C52.4123 15.2054 49.1994 16.0595 49.1994 22.7904C49.1994 29.5212 52.2497 30.3143 54.4458 30.3143C56.3167 30.3143 56.9877 30.0906 56.9877 30.0906V25.4136H53.9985C53.7748 25.4136 53.6121 25.2509 53.6121 25.0679V21.3262C53.6121 21.1432 53.7748 20.9805 53.9985 20.9805H61.6038C61.8274 20.9805 61.9901 21.1432 61.9901 21.3262Z" fill="white"/>
</g>
<defs>
<clipPath id="clip0_344_1293">
<rect width="135" height="48" fill="white" transform="translate(0.5)"/>
</clipPath>
</defs>
</svg>
